<?xml version="1.0" encoding="utf-8"?>
<!-- Generator: Adobe Illustrator 16.0.0, SVG Export Plug-In . SVG Version: 6.00 Build 0)  -->
<!DOCTYPE svg PUBLIC "-//W3C//DTD SVG 1.1//EN" "http://www.w3.org/Graphics/SVG/1.1/DTD/svg11.dtd">
<svg version="1.1" id="Layer_1" xmlns="http://www.w3.org/2000/svg" xmlns:xlink="http://www.w3.org/1999/xlink" x="0px" y="0px"
	 width="500px" height="500px" viewBox="0 0 500 500" enable-background="new 0 0 500 500" xml:space="preserve">
<path fill="#FFFFFF" d="M250.005,108.878c46.132,0,51.597,0.183,69.804,1.007c16.836,0.768,25.984,3.579,32.08,5.945
	c8.063,3.131,13.816,6.881,19.867,12.927c6.052,6.05,9.779,11.792,12.92,19.857c2.368,6.095,5.179,15.238,5.953,32.08
	c0.818,18.213,1.007,23.679,1.007,69.803c0,46.112-0.188,51.589-1.007,69.81c-0.774,16.836-3.585,25.973-5.953,32.079
	c-3.141,8.054-6.857,13.806-12.92,19.847c-6.062,6.039-11.804,9.778-19.867,12.932c-6.084,2.365-15.243,5.197-32.08,5.939
	c-18.207,0.817-23.672,1.019-69.804,1.019c-46.123,0-51.587-0.2-69.802-1.019c-16.842-0.765-25.985-3.574-32.081-5.939
	c-8.064-3.12-13.816-6.881-19.856-12.932c-6.034-6.041-9.785-11.793-12.926-19.847c-2.367-6.085-5.188-15.243-5.946-32.079
	c-0.824-18.221-1.006-23.697-1.006-69.81c0-46.124,0.183-51.589,1.006-69.803c0.769-16.842,3.579-25.985,5.946-32.08
	c3.13-8.065,6.881-13.807,12.926-19.857c6.051-6.045,11.803-9.784,19.856-12.927c6.084-2.366,15.238-5.187,32.081-5.945
	C198.417,109.05,203.882,108.878,250.005,108.878 M250.005,77.75c-46.919,0-52.799,0.193-71.218,1.04
	c-18.396,0.84-30.946,3.761-41.932,8.037c-11.366,4.402-21.001,10.315-30.598,19.912c-9.607,9.602-15.509,19.242-19.929,30.599
	c-4.27,10.984-7.19,23.545-8.031,41.93c-0.835,18.43-1.04,24.31-1.04,71.23s0.205,52.794,1.04,71.225
	c0.84,18.385,3.761,30.93,8.031,41.926c4.419,11.371,10.321,21.008,19.929,30.599c9.607,9.602,19.232,15.509,30.598,19.912
	c10.986,4.291,23.536,7.212,41.932,8.052c18.419,0.82,24.31,1.041,71.218,1.041c46.929,0,52.802-0.221,71.221-1.041
	c18.396-0.84,30.951-3.761,41.926-8.052c11.359-4.403,20.996-10.312,30.598-19.912c9.613-9.625,15.509-19.228,19.924-30.599
	c4.271-10.996,7.19-23.541,8.031-41.926c0.852-18.431,1.039-24.314,1.039-71.225s-0.188-52.801-1.039-71.23
	c-0.841-18.385-3.762-30.935-8.031-41.93c-4.415-11.356-10.322-21.007-19.924-30.599c-9.613-9.607-19.237-15.509-30.598-19.912
	c-10.975-4.276-23.541-7.196-41.926-8.037C302.807,77.943,296.909,77.75,250.005,77.75"/>
<path fill="#FFFFFF" d="M250.005,161.789c-48.994,0-88.707,39.714-88.707,88.708c0,48.989,39.712,88.701,88.707,88.701
	c48.996,0,88.708-39.712,88.708-88.701C338.713,201.503,298.989,161.789,250.005,161.789 M250.005,308.07
	c-31.797,0-57.578-25.766-57.578-57.573c0-31.808,25.781-57.58,57.578-57.58c31.815,0,57.579,25.781,57.579,57.58
	C307.584,282.307,281.799,308.07,250.005,308.07"/>
<path fill="#FFFFFF" d="M362.951,158.276c0,11.456-9.293,20.73-20.73,20.73c-11.461,0-20.729-9.275-20.729-20.73
	c0-11.449,9.27-20.73,20.729-20.73C353.658,137.546,362.951,146.839,362.951,158.276"/>
</svg>
