<?xml version="1.0" encoding="utf-8"?>
<!-- Generator: Adobe Illustrator 16.0.0, SVG Export Plug-In . SVG Version: 6.00 Build 0)  -->
<!DOCTYPE svg PUBLIC "-//W3C//DTD SVG 1.1//EN" "http://www.w3.org/Graphics/SVG/1.1/DTD/svg11.dtd">
<svg version="1.1" id="Layer_1" xmlns="http://www.w3.org/2000/svg" xmlns:xlink="http://www.w3.org/1999/xlink" x="0px" y="0px"
	 width="500px" height="500px" viewBox="0 0 500 500" enable-background="new 0 0 500 500" xml:space="preserve">
<g transform="translate(-539.18 -568.86)">
	<path fill="#FFFFFF" d="M718.279,979.374c147.901,0,228.782-122.524,228.782-228.78c0-3.481-0.072-6.946-0.229-10.395
		c15.7-11.349,29.347-25.514,40.11-41.637c-14.406,6.403-29.912,10.715-46.177,12.66c16.604-9.955,29.348-25.701,35.359-44.474
		c-15.536,9.209-32.742,15.903-51.06,19.517c-14.673-15.627-35.561-25.403-58.692-25.403c-44.406,0-80.414,36.009-80.414,80.398
		c0,6.31,0.707,12.446,2.084,18.334c-66.829-3.363-126.089-35.358-165.748-84.011c-6.905,11.884-10.887,25.687-10.887,40.417
		c0,27.896,14.195,52.522,35.781,66.93c-13.192-0.406-25.585-4.029-36.417-10.056c-0.011,0.338-0.011,0.667-0.011,1.026
		c0,38.942,27.717,71.452,64.51,78.821c-6.756,1.842-13.865,2.828-21.203,2.828c-5.173,0-10.213-0.51-15.112-1.449
		c10.236,31.949,39.92,55.197,75.114,55.848c-27.52,21.572-62.189,34.418-99.869,34.418c-6.482,0-12.885-0.367-19.179-1.111
		C630.609,966.062,672.865,979.373,718.279,979.374"/>
</g>
</svg>
