<?xml version="1.0" encoding="utf-8"?>
<!-- Generator: Adobe Illustrator 16.0.0, SVG Export Plug-In . SVG Version: 6.00 Build 0)  -->
<!DOCTYPE svg PUBLIC "-//W3C//DTD SVG 1.1//EN" "http://www.w3.org/Graphics/SVG/1.1/DTD/svg11.dtd">
<svg version="1.1" id="Layer_1" xmlns="http://www.w3.org/2000/svg" xmlns:xlink="http://www.w3.org/1999/xlink" x="0px" y="0px"
	 width="500px" height="500px" viewBox="0 0 500 500" enable-background="new 0 0 500 500" xml:space="preserve">
<path fill="#FFFFFF" d="M452.631,148.144c-4.879-18.137-19.18-32.435-37.315-37.319c-33.13-9.065-165.654-9.065-165.654-9.065
	s-132.519,0-165.649,8.722c-17.786,4.878-32.436,19.527-37.314,37.663c-8.719,33.128-8.719,101.831-8.719,101.831
	s0,69.049,8.719,101.83c4.884,18.136,19.179,32.433,37.317,37.317c33.477,9.067,165.651,9.067,165.651,9.067
	s132.519,0,165.649-8.722c18.138-4.881,32.437-19.179,37.319-37.313c8.717-33.131,8.717-101.83,8.717-101.83
	S461.7,181.272,452.631,148.144z M207.469,313.445v-126.94l110.201,63.47L207.469,313.445z"/>
</svg>
